<svg xmlns="http://www.w3.org/2000/svg"  viewBox="0 0 100 100" width="200px" height="200px"><path fill="#52bea0" d="M57.748,40.982H42.252c0,32.811-19.365,18.81-19.365,44.539c0,0,1.057,4.485,27.112,4.485 c26.055,0,27.112-4.485,27.112-4.485C77.112,59.792,57.748,73.793,57.748,40.982z"/><path fill="#00a6a6" d="M57.748,40.982H42.252c0,2.183,0.132,5.162-0.028,6.956c3.619,0.349,10.93,0.202,10.93,6.273 c0,5.233-3.366,22.616-12.837,23.564c-8.638,0.865-16.02-2.118-16.02-2.118c-0.88,2.467-1.41,5.623-1.41,9.864 c0,0,1.057,4.485,27.112,4.485c26.055,0,27.112-4.485,27.112-4.485C77.112,59.792,57.748,73.793,57.748,40.982z"/><path fill="#52bea0" d="M53.912,31.3H50h-3.912c-3.845,2.583-7.237,5.166-11.083,7.749 c0.058,0.829,0.219,1.931,0.643,3.164c0.382,1.11,0.864,1.998,1.284,2.654l13.071-0.019l13.078,0.174 c0.42-0.656,0.903-1.7,1.284-2.81c0.424-1.234,0.585-2.335,0.643-3.164C61.163,36.466,57.758,33.883,53.912,31.3z"/><path fill="#00a6a6" d="M53.873,44.854l2.1,0.935l1.889-0.929l5.219,0.163c0.42-0.656,0.903-1.7,1.284-2.81 c0.424-1.234,0.585-2.335,0.643-3.164C61.163,36.466,58.845,34.583,55,32l-3,1l3.809,6.046L53.873,44.854z"/><circle cx="50" cy="23.554" r="13.555" fill="#52bea0"/><path fill="#00a6a6" d="M57.522,12.279c1.439,2.153,2.28,4.738,2.28,7.522c0,2.672-0.773,5.164-2.108,7.263 c-0.332,0.522-0.699,1.021-1.098,1.491c-1.5,1.772-3.447,3.153-5.666,3.97l2.989,4.009c0.842-0.254,2.013,0.115,2.777-0.29 c0.699-0.37,0.997-1.5,1.616-1.982c3.19-2.48,5.243-6.355,5.243-10.708C63.555,18.851,61.158,14.71,57.522,12.279z"/><path fill="#a0d2a1" d="M50.839,14.337c0.674,1.745-0.951,4.584-3.63,6.34s-5.397,1.765-6.071,0.02 c-0.674-1.745,0.951-4.584,3.63-6.34S50.165,12.592,50.839,14.337z"/><path fill="none" stroke="#1f212b" stroke-linecap="round" stroke-linejoin="round" stroke-miterlimit="10" stroke-width="2" d="M57.85,45.021l0.012-0.006l5.219,0.008l0,0h0c0.42-0.656,0.903-1.7,1.284-2.81c0.424-1.234,0.585-2.335,0.643-3.164 c-2.377-1.597-4.315-3.193-6.692-4.79c0.045-0.035,0.084-0.077,0.129-0.112c0.257-0.205,0.501-0.423,0.742-0.646 c0.107-0.099,0.219-0.191,0.322-0.293c0.336-0.331,0.658-0.678,0.959-1.043c0.03-0.036,0.054-0.076,0.084-0.112 c0.268-0.332,0.52-0.676,0.756-1.032c0.087-0.132,0.164-0.271,0.246-0.406c0.166-0.271,0.327-0.544,0.474-0.827 c0.084-0.162,0.16-0.328,0.238-0.494c0.127-0.271,0.246-0.544,0.355-0.825c0.069-0.177,0.134-0.354,0.195-0.534 c0.098-0.286,0.183-0.578,0.262-0.872c0.048-0.179,0.098-0.357,0.139-0.539c0.072-0.323,0.126-0.652,0.175-0.984 c0.024-0.16,0.055-0.317,0.073-0.479c0.055-0.495,0.088-0.997,0.088-1.507c0-0.538-0.04-1.066-0.101-1.587 c-0.019-0.161-0.049-0.319-0.073-0.478c-0.056-0.364-0.123-0.724-0.207-1.078c-0.04-0.17-0.083-0.337-0.13-0.504 c-0.1-0.358-0.216-0.709-0.344-1.055c-0.05-0.134-0.093-0.27-0.147-0.402c-0.193-0.474-0.406-0.938-0.65-1.384 c-0.002-0.004-0.005-0.007-0.007-0.011c-0.241-0.44-0.511-0.861-0.798-1.269c-0.077-0.109-0.159-0.213-0.239-0.32 c-0.227-0.304-0.464-0.598-0.715-0.882c-0.096-0.108-0.192-0.215-0.291-0.321c-0.275-0.292-0.563-0.569-0.863-0.835 c-0.078-0.069-0.151-0.142-0.23-0.209c-2.363-2.005-5.418-3.22-8.76-3.22c-7.486,0-13.555,6.069-13.555,13.555 c0,4.353,2.06,8.217,5.25,10.697c-2.381,1.599-4.308,3.345-6.689,4.944c0.058,0.829,0.219,1.931,0.643,3.165 c0.382,1.11,0.864,1.998,1.284,2.655l5.213-0.008c-0.039,0.709-0.085,1.255-0.144,1.916c0.001,0,0.003,0,0.004,0 c-1.994,22.396-15.56,16.494-18.538,31.81c-0.002,0.01-0.004,0.02-0.006,0.03c-0.069,0.358-0.133,0.727-0.19,1.108 c-0.004,0.028-0.009,0.055-0.013,0.083c-0.113,0.77-0.202,1.59-0.264,2.463c-0.008,0.106-0.014,0.214-0.021,0.321 c-0.021,0.329-0.037,0.665-0.05,1.01c-0.005,0.125-0.01,0.248-0.014,0.375c-0.013,0.454-0.022,0.917-0.022,1.398 c0,0,1.057,4.485,27.112,4.485c26.055,0,27.112-4.485,27.112-4.485C77.112,60.872,59.342,72.836,57.85,45.021z"/><line x1="42" x2="58" y1="45" y2="45" fill="none" stroke="#1f212b" stroke-linecap="round" stroke-linejoin="round" stroke-miterlimit="10" stroke-width="2"/><path fill="none" stroke="#1f212b" stroke-linecap="round" stroke-linejoin="round" stroke-miterlimit="10" d="M54.908,30.229 c-1.175,0.977-2.517,1.759-3.978,2.296l0.29,0.389l-0.029,0.007l4.618,6.124l-1.936,5.808l2.205-0.101l1.784,0.107l5.219,0.163 c0.42-0.656,0.903-1.7,1.284-2.81c0.424-1.234,0.585-2.335,0.643-3.164c-2.627-1.764-4.547-3.205-6.722-4.762 c0.009-0.007,0.016-0.017,0.025-0.024c3.19-2.48,5.243-6.355,5.243-10.708c0-4.703-2.397-8.844-6.034-11.275 c1.439,2.153,2.28,4.738,2.28,7.522c0,2.834-0.869,5.464-2.356,7.639"/><path fill="none" stroke="#1f212b" stroke-linecap="round" stroke-linejoin="round" stroke-miterlimit="10" d="M51.938,62.409 c-0.371,1.481-0.832,3.017-1.393,4.522"/><path fill="none" stroke="#1f212b" stroke-linecap="round" stroke-linejoin="round" stroke-miterlimit="10" d="M48.279,71.731 c-1.953,3.249-4.564,5.704-7.961,6.044c-8.638,0.865-16.02-2.118-16.02-2.118c-0.88,2.467-1.41,5.623-1.41,9.864 c0,0,1.057,4.485,27.112,4.485c26.055,0,27.112-4.485,27.112-4.485c0-24.605-20.483-12.859-19.257-40.501 c0.007-0.161-15.7-0.266-15.7-0.266c-0.04,0.75,0.132,2.488,0.07,3.184c3.619,0.349,10.93,0.202,10.93,6.273 c0,0.922-0.105,2.222-0.329,3.743"/><path fill="none" stroke="#1f212b" stroke-linecap="round" stroke-linejoin="round" stroke-miterlimit="10" d="M50.839,14.337 c0.674,1.745-0.951,4.584-3.63,6.34s-5.397,1.765-6.071,0.02c-0.674-1.745,0.951-4.584,3.63-6.34S50.165,12.592,50.839,14.337z"/></svg>